
<svg width="735px" height="122px" viewBox="0 0 735 122" version="1.1" xmlns="http://www.w3.org/2000/svg" xmlns:xlink="http://www.w3.org/1999/xlink">
    <g id="Page-1" stroke="none" stroke-width="1" fill="none" fill-rule="evenodd">
        <g id="Group-2">
            <g id="Group">
                <path d="M146.086475,10.9639811 C149.847802,4.55705882 156.721951,1.00470588 163.790652,1.00470588 C167.227726,1.00470588 170.729651,1.89279412 173.972174,3.66897059 L245.631935,44.1404202 C255.424355,49.6592542 258.731729,61.83875 253.089739,71.417416 C249.328412,77.8243382 242.454263,81.3766912 235.385562,81.3766912 C231.948488,81.3766912 228.446563,80.4886029 225.20404,78.7124265 L153.544279,38.2409769 C143.751859,32.7221429 140.444485,20.4792122 146.086475,10.9639811 Z" id="Path" fill="#0D9D58"></path>
                <path d="M110.159319,111.825431 C106.397992,118.232353 99.5238432,121.784706 92.4551428,121.784706 C89.0180683,121.784706 85.5161433,120.896618 82.2736202,119.120441 L10.613859,78.6489916 C0.821439193,73.1301576 -2.4859344,60.9506618 3.15605585,51.3719958 C6.91738267,44.9650735 13.7915317,41.4127206 20.8602321,41.4127206 C24.2973066,41.4127206 27.7992316,42.3008088 31.0417548,44.0769853 L102.701516,84.5484349 C112.429085,90.0672689 115.801309,102.3102 110.159319,111.825431 Z" id="Path" fill="#4285F4"></path>
                <path d="M153.544279,84.5484349 L189.601136,64.1858403 L222.739722,82.8991282 C225.787694,84.6118697 229.095067,85.6902626 232.532142,86.0708718 L173.972174,119.120441 C170.729651,120.960053 167.227726,121.784706 163.790652,121.784706 C156.721951,121.784706 149.847802,118.232353 146.086475,111.825431 C140.444485,102.3102 143.751859,90.0672689 153.544279,84.5484349 Z" id="Path" fill="#FCBC05"></path>
                <path d="M102.701516,38.177542 L66.6446587,58.5401366 L33.5060723,39.8268487 C30.4581006,38.1141071 27.150727,37.0357143 23.7136525,36.655105 L82.2736202,3.60553571 C85.5161433,1.76592437 89.0180683,0.941271008 92.4551428,0.941271008 C99.5238432,0.941271008 106.397992,4.49362395 110.159319,10.9005462 C115.801309,20.4792122 112.429085,32.7221429 102.701516,38.177542 Z" id="Path" fill="#EA4334"></path>
            </g>
            <path d="M363.65713,54.7098214 C359.007072,54.7098214 354.725399,53.5806967 350.811984,51.3224133 C346.898569,49.06413 343.790904,45.9532761 341.488895,41.9897584 C339.186886,38.0262407 338.035899,33.6480019 338.035899,28.8549107 C338.035899,24.0618195 339.186886,19.6835807 341.488895,15.720063 C343.790904,11.7565453 346.898569,8.64569144 350.811984,6.38740809 C354.725399,4.12912474 359.007072,3 363.65713,3 C367.294304,3 370.712736,3.64521414 373.912528,4.93566176 C377.11232,6.22610939 379.748081,8.04653499 381.819889,10.3969932 L377.607234,14.6139706 C376.041868,12.6782991 374.03915,11.1920023 371.599021,10.1550355 C369.158891,9.11806861 366.53464,8.59959296 363.72619,8.59959296 C360.227136,8.59959296 356.969842,9.44067568 353.954211,11.1228663 C350.938579,12.805057 348.521506,15.1785233 346.702919,18.2433364 C344.884332,21.3081495 343.975052,24.8453056 343.975052,28.8549107 C343.975052,32.8645158 344.884332,36.4016719 346.702919,39.466485 C348.521506,42.5312981 350.950089,44.9047644 353.988741,46.5869551 C357.027392,48.2691458 360.273176,49.1102285 363.72619,49.1102285 C367.041082,49.1102285 369.814961,48.5917528 372.04791,47.554786 C374.280859,46.5178191 376.203007,45.1467391 377.814413,43.4415047 C379.011458,42.1510571 379.978287,40.5956302 380.71493,38.7751773 C381.451573,36.9547244 381.911968,34.9384302 382.096129,32.7262342 L363.795249,32.7262342 L363.795249,27.2649028 L387.551862,27.2649028 C387.782063,28.5553505 387.897162,29.7536053 387.897162,30.8597033 C387.897162,33.9014727 387.413747,36.8625447 386.446904,39.7430081 C385.48006,42.6234716 383.937737,45.1467197 381.819889,47.3128283 C377.261911,52.2441817 371.207719,54.7098214 363.65713,54.7098214 Z M393.913048,4.10609244 L408.829991,4.10609244 C413.894411,4.10609244 418.314202,5.15456541 422.089496,7.2515428 C425.864791,9.3485202 428.765279,12.2635055 430.791046,15.9965861 C432.816814,19.7296668 433.829683,24.0157321 433.829683,28.8549107 C433.829683,33.6940893 432.816814,37.9801547 430.791046,41.7132353 C428.765279,45.4463159 425.864791,48.3613012 422.089496,50.4582786 C418.314202,52.555256 413.894411,53.603729 408.829991,53.603729 L393.913048,53.603729 L393.913048,4.10609244 Z M408.829991,48.004136 C414.677094,48.004136 419.315572,46.3219706 422.745566,42.9575893 C426.175559,39.593208 427.89053,34.8923621 427.89053,28.8549107 C427.89053,22.8174593 426.175559,18.1166135 422.745566,14.7522321 C419.315572,11.3878508 414.677094,9.7056854 408.829991,9.7056854 L399.714082,9.7056854 L399.714082,48.004136 L408.829991,48.004136 Z M462.980643,54.7098214 C458.330585,54.7098214 454.048913,53.5806967 450.135498,51.3224133 C446.222083,49.06413 443.114417,45.9532761 440.812408,41.9897584 C438.5104,38.0262407 437.359412,33.6480019 437.359412,28.8549107 C437.359412,24.0618195 438.5104,19.6835807 440.812408,15.720063 C443.114417,11.7565453 446.222083,8.64569144 450.135498,6.38740809 C454.048913,4.12912474 458.330585,3 462.980643,3 C466.617817,3 470.036249,3.64521414 473.236041,4.93566176 C476.435834,6.22610939 479.071594,8.04653499 481.143402,10.3969932 L476.930747,14.6139706 C475.365381,12.6782991 473.362663,11.1920023 470.922534,10.1550355 C468.482405,9.11806861 465.858154,8.59959296 463.049703,8.59959296 C459.55065,8.59959296 456.293356,9.44067568 453.277724,11.1228663 C450.262093,12.805057 447.845019,15.1785233 446.026432,18.2433364 C444.207845,21.3081495 443.298566,24.8453056 443.298566,28.8549107 C443.298566,32.8645158 444.207845,36.4016719 446.026432,39.466485 C447.845019,42.5312981 450.273602,44.9047644 453.312254,46.5869551 C456.350906,48.2691458 459.59669,49.1102285 463.049703,49.1102285 C466.364596,49.1102285 469.138475,48.5917528 471.371424,47.554786 C473.604372,46.5178191 475.526521,45.1467391 477.137927,43.4415047 C478.334972,42.1510571 479.301801,40.5956302 480.038444,38.7751773 C480.775087,36.9547244 481.235481,34.9384302 481.419642,32.7262342 L463.118763,32.7262342 L463.118763,27.2649028 L486.875376,27.2649028 C487.105577,28.5553505 487.220675,29.7536053 487.220675,30.8597033 C487.220675,33.9014727 486.737261,36.8625447 485.770417,39.7430081 C484.803573,42.6234716 483.261251,45.1467197 481.143402,47.3128283 C476.585425,52.2441817 470.531232,54.7098214 462.980643,54.7098214 Z M506.5728,4.10609244 L521.489743,4.10609244 C526.554163,4.10609244 530.973953,5.15456541 534.749248,7.2515428 C538.524543,9.3485202 541.42503,12.2635055 543.450798,15.9965861 C545.476566,19.7296668 546.489435,24.0157321 546.489435,28.8549107 C546.489435,33.6940893 545.476566,37.9801547 543.450798,41.7132353 C541.42503,45.4463159 538.524543,48.3613012 534.749248,50.4582786 C530.973953,52.555256 526.554163,53.603729 521.489743,53.603729 L506.5728,53.603729 L506.5728,4.10609244 Z M521.489743,48.004136 C527.336846,48.004136 531.975324,46.3219706 535.405317,42.9575893 C538.835311,39.593208 540.550281,34.8923621 540.550281,28.8549107 C540.550281,22.8174593 538.835311,18.1166135 535.405317,14.7522321 C531.975324,11.3878508 527.336846,9.7056854 521.489743,9.7056854 L512.373834,9.7056854 L512.373834,48.004136 L521.489743,48.004136 Z M565.902946,54.7098214 C562.542013,54.7098214 559.526427,53.9033038 556.856096,52.2902442 C554.185766,50.6771847 552.102479,48.4535003 550.606173,45.6191242 C549.109868,42.7847482 548.361726,39.5932425 548.361726,36.0445116 C548.361726,32.6340428 549.063828,29.5001456 550.468054,26.6427258 C551.872279,23.7853061 553.863487,21.5040133 556.441737,19.7987789 C559.019987,18.0935445 562.012553,17.2409401 565.419526,17.2409401 C568.87254,17.2409401 571.865106,18.0128928 574.397316,19.5568212 C576.929526,21.1007496 578.874694,23.2322606 580.23288,25.9514181 C581.591065,28.6705756 582.270147,31.7814294 582.270147,35.284073 C582.270147,35.9753842 582.201088,36.5745116 582.062967,37.0814732 L554.231819,37.0814732 C554.36994,39.7545433 555.014493,42.0127928 556.165497,43.8562894 C557.316501,45.699786 558.778255,47.0823877 560.550802,48.004136 C562.323349,48.9258843 564.176438,49.3867516 566.110126,49.3867516 C570.622063,49.3867516 574.098044,47.2667623 576.538174,43.0267201 L581.510488,45.4462973 C579.991162,48.303717 577.930895,50.5619665 575.329625,52.2211134 C572.728355,53.8802604 569.58616,54.7098214 565.902946,54.7098214 Z M576.054754,32.2423188 C575.962674,30.7675215 575.548319,29.2927463 574.811676,27.8179491 C574.075033,26.3431518 572.912536,25.0988102 571.32415,24.0848871 C569.735764,23.0709639 567.744556,22.56401 565.350467,22.56401 C562.588056,22.56401 560.251552,23.4511794 558.340885,25.2255449 C556.430217,26.9999104 555.175641,29.3388116 554.577119,32.2423188 L576.054754,32.2423188 Z M581.863461,18.3470326 L588.147914,18.3470326 L599.059381,46.6906513 L599.197501,46.6906513 L610.247089,18.3470326 L616.393422,18.3470326 L602.028958,53.603729 L596.089805,53.603729 L581.863461,18.3470326 Z M619.715971,4.10609244 L648.306779,4.10609244 L648.306779,9.7056854 L625.517005,9.7056854 L625.517005,26.6427258 L646.096861,26.6427258 L646.096861,32.173188 L625.517005,32.173188 L625.517005,53.603729 L619.715971,53.603729 L619.715971,4.10609244 Z M666.131912,54.7098214 C662.770979,54.7098214 659.755392,53.9033038 657.085062,52.2902442 C654.414732,50.6771847 652.331445,48.4535003 650.835139,45.6191242 C649.338833,42.7847482 648.590692,39.5932425 648.590692,36.0445116 C648.590692,32.6340428 649.292794,29.5001456 650.697019,26.6427258 C652.101245,23.7853061 654.092453,21.5040133 656.670703,19.7987789 C659.248953,18.0935445 662.241519,17.2409401 665.648492,17.2409401 C669.101506,17.2409401 672.094072,18.0128928 674.626282,19.5568212 C677.158492,21.1007496 679.10366,23.2322606 680.461845,25.9514181 C681.820031,28.6705756 682.499113,31.7814294 682.499113,35.284073 C682.499113,35.9753842 682.430054,36.5745116 682.291933,37.0814732 L654.460785,37.0814732 C654.598906,39.7545433 655.243458,42.0127928 656.394463,43.8562894 C657.545467,45.699786 659.007221,47.0823877 660.779768,48.004136 C662.552315,48.9258843 664.405404,49.3867516 666.339092,49.3867516 C670.851029,49.3867516 674.32701,47.2667623 676.76714,43.0267201 L681.739454,45.4462973 C680.220128,48.303717 678.159861,50.5619665 675.558591,52.2211134 C672.957321,53.8802604 669.815126,54.7098214 666.131912,54.7098214 Z M676.28372,32.2423188 C676.19164,30.7675215 675.777284,29.2927463 675.040642,27.8179491 C674.303999,26.3431518 673.141502,25.0988102 671.553116,24.0848871 C669.964729,23.0709639 667.973522,22.56401 665.579432,22.56401 C662.817022,22.56401 660.480518,23.4511794 658.56985,25.2255449 C656.659183,26.9999104 655.404607,29.3388116 654.806085,32.2423188 L676.28372,32.2423188 Z M699.288347,54.7098214 C695.513053,54.7098214 692.359348,53.822652 689.827138,52.0482865 C687.294928,50.273921 685.499388,48.0041499 684.440464,45.2389049 L689.689018,42.8884585 C690.563782,45.0084796 691.864397,46.6445583 693.590904,47.7967437 C695.31741,48.9489291 697.216539,49.5250131 699.288347,49.5250131 C701.498276,49.5250131 703.385895,49.0756676 704.951261,48.176963 C706.516627,47.2782584 707.299298,45.9993518 707.299298,44.3402048 C707.299298,42.8654075 706.677765,41.6786744 705.43468,40.7799698 C704.191596,39.8812652 702.234917,39.1093126 699.564587,38.4640888 L695.282872,37.3579963 C692.474421,36.6666851 690.172447,35.4914736 688.37688,33.8323267 C686.581313,32.1731797 685.683543,30.0301471 685.683543,27.4031644 C685.683543,25.3753181 686.293566,23.5894576 687.513631,22.0455291 C688.733695,20.5016007 690.356587,19.3148676 692.382355,18.4852941 C694.408123,17.6557206 696.594999,17.2409401 698.943048,17.2409401 C702.02774,17.2409401 704.778599,17.9091976 707.195708,19.2457327 C709.612818,20.5822677 711.327789,22.44878 712.340672,24.8453256 L707.230238,27.1957721 C705.664872,24.0618278 702.879483,22.4948792 698.873988,22.4948792 C696.9403,22.4948792 695.248349,22.9442248 693.798084,23.8429294 C692.347818,24.741634 691.622696,25.8822804 691.622696,27.2649028 C691.622696,28.5553505 692.12913,29.6038234 693.142014,30.4103532 C694.154898,31.216883 695.674201,31.8736188 697.699969,32.3805804 L702.810403,33.6940651 C706.263417,34.569726 708.864648,35.871676 710.614174,37.599954 C712.363701,39.3282321 713.238451,41.4366997 713.238451,43.9254202 C713.238451,46.0915287 712.616918,47.9926061 711.373834,49.6287093 C710.130749,51.2648125 708.450307,52.5206758 706.332459,53.3963367 C704.214611,54.2719976 701.866597,54.7098214 699.288347,54.7098214 Z M730.165806,54.1567752 C728.73856,54.1567752 727.414925,53.9263416 726.19486,53.4654674 C724.974795,53.0045933 723.950417,52.3824225 723.121694,51.5989364 C722.20089,50.7232756 721.510298,49.7093676 721.049896,48.5571822 C720.589494,47.4049969 720.359297,45.9993518 720.359297,44.3402048 L720.359297,23.6701024 L714.212964,23.6701024 L714.212964,18.3470326 L720.359297,18.3470326 L720.359297,8.39220063 L726.22939,8.39220063 L726.22939,18.3470326 L734.79282,18.3470326 L734.79282,23.6701024 L726.22939,23.6701024 L726.22939,42.8884585 C726.22939,44.82413 726.597706,46.2528184 727.334349,47.1745667 C728.209112,48.1884898 729.475198,48.6954438 731.132644,48.6954438 C732.46781,48.6954438 733.756915,48.3037066 735,47.5202206 L735,53.2580751 C734.309397,53.580687 733.607295,53.8111206 732.893672,53.9493829 C732.18005,54.0876451 731.27077,54.1567752 730.165806,54.1567752 Z M354.26498,120 C350.397605,120 346.852565,118.824789 343.629752,116.47433 C340.40694,114.123872 338.197045,110.828671 337,106.588629 L342.593854,104.307314 C343.376537,107.256908 344.82678,109.676461 346.944629,111.566045 C349.062477,113.455629 351.548609,114.400407 354.4031,114.400407 C357.257591,114.400407 359.674664,113.628454 361.654392,112.084526 C363.63412,110.540598 364.623969,108.43213 364.623969,105.75906 C364.623969,103.454689 363.783748,101.553612 362.103281,100.055771 C360.422815,98.5579297 357.671956,97.1638063 353.850621,95.8733587 L350.742924,94.7672663 C347.243871,93.5229061 344.389423,91.8868274 342.179494,89.8589811 C339.969566,87.8311348 338.864618,85.0198447 338.864618,81.4250263 C338.864618,79.0745681 339.509171,76.8969704 340.798296,74.8921678 C342.087421,72.8873652 343.882961,71.2858516 346.18497,70.0875788 C348.486978,68.889306 351.06519,68.2901786 353.919681,68.2901786 C356.774172,68.2901786 359.260304,68.8201759 361.378152,69.8801864 C363.496,70.940197 365.187952,72.2306253 366.454056,73.75151 C367.720161,75.2723947 368.606421,76.7702132 369.112863,78.2450105 L363.58807,80.5954569 C363.127668,78.8902226 362.08027,77.3463173 360.445843,75.9636949 C358.811417,74.5810724 356.659071,73.8897715 353.988741,73.8897715 C351.456531,73.8897715 349.292675,74.6041158 347.497108,76.0328256 C345.701541,77.4615355 344.803771,79.2589177 344.803771,81.4250263 C344.803771,83.3606977 345.563423,84.939168 347.082749,86.1604845 C348.602074,87.381801 350.904049,88.5224474 353.988741,89.582458 L357.234557,90.6885504 C361.424213,92.2094351 364.693017,94.1105125 367.041066,96.3918395 C369.389115,98.6731666 370.563122,101.772499 370.563122,105.689929 C370.563122,108.869961 369.745921,111.542991 368.111495,113.709099 C366.477068,115.875208 364.416801,117.4652 361.930632,118.479123 C359.444462,119.493046 356.88927,120 354.26498,120 Z M391.012532,120 C387.651599,120 384.636012,119.193482 381.965682,117.580423 C379.295352,115.967363 377.212065,113.743679 375.715759,110.909303 C374.219453,108.074927 373.471312,104.883421 373.471312,101.33469 C373.471312,97.9242214 374.173414,94.7903242 375.577639,91.9329044 C376.981865,89.0754847 378.973073,86.7941918 381.551323,85.0889575 C384.129573,83.3837231 387.122139,82.5311187 390.529112,82.5311187 C393.982126,82.5311187 396.974692,83.3030713 399.506902,84.8469997 C402.039112,86.3909282 403.98428,88.5224391 405.342465,91.2415966 C406.700651,93.9607541 407.379733,97.071608 407.379733,100.574252 C407.379733,101.265563 407.310674,101.86469 407.172553,102.371652 L379.341405,102.371652 C379.479526,105.044722 380.124078,107.302971 381.275083,109.146468 C382.426087,110.989965 383.887841,112.372566 385.660388,113.294315 C387.432935,114.216063 389.286024,114.67693 391.219712,114.67693 C395.731649,114.67693 399.20763,112.556941 401.64776,108.316899 L406.620074,110.736476 C405.100748,113.593896 403.040481,115.852145 400.439211,117.511292 C397.837941,119.170439 394.695746,120 391.012532,120 Z M401.16434,97.5324974 C401.07226,96.0577001 400.657904,94.5829249 399.921262,93.1081276 C399.184619,91.6333303 398.022122,90.3889888 396.433736,89.3750657 C394.845349,88.3611425 392.854142,87.8541886 390.460052,87.8541886 C387.697642,87.8541886 385.361138,88.741358 383.45047,90.5157235 C381.539803,92.290089 380.285227,94.6289902 379.686705,97.5324974 L401.16434,97.5324974 Z M423.133069,120 C420.554819,120 418.252844,119.493046 416.227076,118.479123 C414.201309,117.4652 412.635966,116.071076 411.531002,114.296711 C410.426038,112.522345 409.873564,110.506051 409.873564,108.247768 C409.873564,104.514687 411.277768,101.599702 414.086219,99.5027245 C416.89467,97.4057471 420.43971,96.3572742 424.721447,96.3572742 C426.839295,96.3572742 428.807483,96.5877078 430.62607,97.0485819 C432.444657,97.5094561 433.837352,98.0394534 434.804195,98.6385898 L434.804195,96.4955357 C434.804195,93.868553 433.883406,91.7600854 432.041798,90.1700696 C430.200191,88.5800538 427.875197,87.7850578 425.066746,87.7850578 C423.087019,87.7850578 421.268459,88.21136 419.611013,89.0639772 C417.953566,89.9165943 416.641441,91.1033275 415.674597,92.6242122 L411.254762,89.3059349 C412.635967,87.1859138 414.535096,85.5267917 416.952206,84.3285189 C419.369315,83.1302461 422.051115,82.5311187 424.997686,82.5311187 C429.785865,82.5311187 433.549593,83.7869819 436.288984,86.2987461 C439.028374,88.8105102 440.398049,92.2324495 440.398049,96.5646665 L440.398049,118.893908 L434.804195,118.893908 L434.804195,113.847361 L434.527956,113.847361 C433.515072,115.552595 431.995769,117.004327 429.970001,118.2026 C427.944233,119.400873 425.665278,120 423.133069,120 Z M423.685548,114.815192 C425.665276,114.815192 427.506855,114.308238 429.210342,113.294315 C430.913828,112.280391 432.271993,110.920833 433.284877,109.215599 C434.297761,107.510364 434.804195,105.643852 434.804195,103.616006 C433.699231,102.878607 432.341066,102.27948 430.72966,101.818606 C429.118254,101.357731 427.414793,101.127298 425.619226,101.127298 C422.396413,101.127298 419.96783,101.795555 418.333404,103.13209 C416.698978,104.468625 415.881777,106.196878 415.881777,108.316899 C415.881777,110.25257 416.618409,111.819519 418.091694,113.017791 C419.56498,114.216064 421.429579,114.815192 423.685548,114.815192 Z M457.808822,120 C454.033528,120 450.879823,119.112831 448.347613,117.338465 C445.815403,115.5641 444.019863,113.294328 442.960939,110.529084 L448.209493,108.178637 C449.084257,110.298658 450.384872,111.934737 452.111379,113.086922 C453.837886,114.239108 455.737014,114.815192 457.808822,114.815192 C460.018751,114.815192 461.90637,114.365846 463.471736,113.467142 C465.037102,112.568437 465.819773,111.28953 465.819773,109.630383 C465.819773,108.155586 465.19824,106.968853 463.955155,106.070148 C462.712071,105.171444 460.755392,104.399491 458.085062,103.754267 L453.803347,102.648175 C450.994896,101.956864 448.692922,100.781652 446.897355,99.1225053 C445.101788,97.4633583 444.204018,95.3203256 444.204018,92.693343 C444.204018,90.6654967 444.814041,88.8796361 446.034106,87.3357077 C447.254171,85.7917793 448.877062,84.6050462 450.90283,83.7754727 C452.928598,82.9458992 455.115474,82.5311187 457.463523,82.5311187 C460.548215,82.5311187 463.299074,83.1993762 465.716183,84.5359112 C468.133293,85.8724463 469.848264,87.7389586 470.861148,90.1355042 L465.750713,92.4859506 C464.185347,89.3520064 461.399958,87.7850578 457.394463,87.7850578 C455.460775,87.7850578 453.768824,88.2344033 452.318559,89.1331079 C450.868293,90.0318125 450.143171,91.1724589 450.143171,92.5550814 C450.143171,93.845529 450.649605,94.894002 451.662489,95.7005318 C452.675373,96.5070615 454.194676,97.1637974 456.220444,97.6707589 L461.330878,98.9842437 C464.783892,99.8599046 467.385123,101.161855 469.134649,102.890133 C470.884176,104.618411 471.758926,106.726878 471.758926,109.215599 C471.758926,111.381707 471.137393,113.282785 469.894309,114.918888 C468.651224,116.554991 466.970783,117.810854 464.852934,118.686515 C462.735086,119.562176 460.387072,120 457.808822,120 Z M492.070217,120 C488.617203,120 485.509538,119.170439 482.747127,117.511292 C479.984717,115.852145 477.832371,113.593896 476.290025,110.736476 C474.747679,107.879056 473.976517,104.722115 473.976517,101.265559 C473.976517,97.8090032 474.747679,94.6520626 476.290025,91.7946429 C477.832371,88.9372231 479.984717,86.6789736 482.747127,85.0198267 C485.509538,83.3606797 488.617203,82.5311187 492.070217,82.5311187 C495.52323,82.5311187 498.630895,83.3606797 501.393306,85.0198267 C504.155717,86.6789736 506.308063,88.9372231 507.850409,91.7946429 C509.392755,94.6520626 510.163916,97.8090032 510.163916,101.265559 C510.163916,104.722115 509.392755,107.879056 507.850409,110.736476 C506.308063,113.593896 504.155717,115.852145 501.393306,117.511292 C498.630895,119.170439 495.52323,120 492.070217,120 Z M492.070217,114.67693 C494.234105,114.67693 496.248333,114.135411 498.11296,113.052357 C499.977587,111.969303 501.47387,110.413876 502.601855,108.386029 C503.729839,106.358183 504.293823,103.984717 504.293823,101.265559 C504.293823,98.5464018 503.729839,96.1729356 502.601855,94.1450893 C501.47387,92.117243 499.977587,90.5618161 498.11296,89.4787618 C496.248333,88.3957076 494.234105,87.8541886 492.070217,87.8541886 C489.906328,87.8541886 487.880591,88.3957076 485.992944,89.4787618 C484.105296,90.5618161 482.597503,92.117243 481.469519,94.1450893 C480.341534,96.1729356 479.777551,98.5464018 479.777551,101.265559 C479.777551,103.984717 480.341534,106.358183 481.469519,108.386029 C482.597503,110.413876 484.105296,111.969303 485.992944,113.052357 C487.880591,114.135411 489.906328,114.67693 492.070217,114.67693 Z M513.624586,83.6372111 L519.218439,83.6372111 L519.218439,88.8220194 L519.494679,88.8220194 C520.461523,87.0706977 522.003845,85.5844008 524.121694,84.3630843 C526.239542,83.1417678 528.495477,82.5311187 530.889566,82.5311187 C535.125262,82.5311187 538.359536,83.7639386 540.592485,86.2296153 C542.825433,88.695292 543.941891,92.0481012 543.941891,96.2881434 L543.941891,118.893908 L538.071798,118.893908 L538.071798,97.1868435 C538.071798,93.914637 537.289126,91.5411707 535.72376,90.0663734 C534.158394,88.5915761 532.017558,87.8541886 529.301188,87.8541886 C527.41354,87.8541886 525.721589,88.3841859 524.225283,89.4441964 C522.728978,90.504207 521.566481,91.8983304 520.737757,93.6266085 C519.909034,95.3548865 519.494679,97.1637904 519.494679,99.0533745 L519.494679,118.893908 L513.624586,118.893908 L513.624586,83.6372111 Z M561.774697,113.017791 C563.201943,111.589082 566.033371,108.720183 570.269068,104.41101 C574.504764,100.101836 577.451291,97.0485909 579.108738,95.2511817 C581.456787,92.7163739 583.045149,90.7346447 583.873872,89.3059349 C584.702595,87.877225 585.116951,86.1489728 585.116951,84.1211266 C585.116951,82.7385041 584.760145,81.4365542 584.046522,80.2152377 C583.332899,78.9939212 582.297011,78.0030566 580.938826,77.2426142 C579.58064,76.4821719 577.957748,76.1019564 576.070101,76.1019564 C573.583931,76.1019564 571.592724,76.8278223 570.096418,78.2795759 C568.600112,79.7313295 567.621773,81.3097998 567.161371,83.0150341 L561.774697,80.87198 C562.235099,79.3971828 563.06381,77.8647992 564.260855,76.2747834 C565.457899,74.6847675 567.069281,73.3252092 569.095049,72.1960675 C571.120817,71.0669258 573.51487,70.5023634 576.277281,70.5023634 C579.177812,70.5023634 581.744513,71.1245342 583.977462,72.3688944 C586.210411,73.6132546 587.948401,75.2723767 589.191486,77.3463104 C590.434571,79.4202441 591.056104,81.6554502 591.056104,84.0519958 C591.056104,88.8911744 588.523932,93.891584 583.459513,99.0533745 L569.302229,113.294315 L591.608583,113.294315 L591.608583,118.893908 L561.774697,118.893908 L561.774697,113.017791 Z M614.475091,120 C610.745836,120 607.442503,118.90544 604.564992,116.716288 C601.687481,114.527136 599.477585,111.554542 597.93524,107.798418 C596.392894,104.042293 595.621732,99.8599233 595.621732,95.2511817 C595.621732,90.6424402 596.392894,86.46007 597.93524,82.7039456 C599.477585,78.9478213 601.675971,75.9752276 604.530462,73.7860754 C607.384953,71.5969231 610.699796,70.5023634 614.475091,70.5023634 C618.250385,70.5023634 621.565228,71.5969231 624.419719,73.7860754 C627.27421,75.9752276 629.472596,78.9478213 631.014942,82.7039456 C632.557288,86.46007 633.328449,90.6424402 633.328449,95.2511817 C633.328449,99.8599233 632.557288,104.042293 631.014942,107.798418 C629.472596,111.554542 627.2627,114.527136 624.385189,116.716288 C621.507678,118.90544 618.204345,120 614.475091,120 Z M614.475091,114.400407 C617.099381,114.400407 619.378335,113.559324 621.312023,111.877134 C623.24571,110.194943 624.741994,107.902128 625.800918,104.998621 C626.859842,102.095114 627.389296,98.8460001 627.389296,95.2511817 C627.389296,91.6563633 626.859842,88.4072493 625.800918,85.5037421 C624.741994,82.600235 623.24571,80.3074204 621.312023,78.6252298 C619.378335,76.9430391 617.099381,76.1019564 614.475091,76.1019564 C611.850801,76.1019564 609.571846,76.9430391 607.638158,78.6252298 C605.704471,80.3074204 604.208188,82.600235 603.149264,85.5037421 C602.090339,88.4072493 601.560885,91.6563633 601.560885,95.2511817 C601.560885,98.8460001 602.090339,102.095114 603.149264,104.998621 C604.208188,107.902128 605.704471,110.194943 607.638158,111.877134 C609.571846,113.559324 611.850801,114.400407 614.475091,114.400407 Z M647.838706,79.8350184 L639.551515,85.7802652 L636.512879,81.2867647 L649.979564,71.6084559 L653.708799,71.6084559 L653.708799,118.893908 L647.838706,118.893908 L647.838706,79.8350184 Z M669.254955,116.750853 L681.133261,100.090336 L680.995142,99.9520746 C679.383735,101.058173 677.334978,101.611213 674.848809,101.611213 C672.454719,101.611213 670.106705,100.942956 667.804697,99.6064207 C665.502688,98.2698856 663.638089,96.4379384 662.210843,94.1105239 C660.783597,91.7831094 660.069985,89.1907312 660.069985,86.3333114 C660.069985,83.5680665 660.795107,80.9756883 662.245373,78.556099 C663.695639,76.1365097 665.652317,74.1893456 668.115466,72.7145483 C670.578616,71.239751 673.260416,70.5023634 676.160947,70.5023634 C679.291679,70.5023634 682.088578,71.2627944 684.551728,72.7836791 C687.014877,74.3045638 688.925516,76.2747713 690.283701,78.6943606 C691.641886,81.1139499 692.320969,83.6602414 692.320969,86.3333114 C692.320969,88.8681193 691.803024,91.299194 690.76712,93.6266085 C689.731216,95.9540229 688.246443,98.5464012 686.312756,101.403821 L673.95103,120 L669.254955,116.750853 Z M676.160947,96.3572742 C678.002554,96.3572742 679.717525,95.9079286 681.305911,95.009224 C682.894297,94.1105194 684.148873,92.8892212 685.069677,91.3452928 C685.99048,89.8013644 686.450875,88.1076773 686.450875,86.2641807 C686.450875,84.3745966 685.99048,82.6578662 685.069677,81.1139378 C684.148873,79.5700093 682.894297,78.3487112 681.305911,77.4500066 C679.717525,76.551302 678.002554,76.1019564 676.160947,76.1019564 C674.31934,76.1019564 672.615879,76.551302 671.050513,77.4500066 C669.485147,78.3487112 668.242081,79.5700093 667.321277,81.1139378 C666.400474,82.6578662 665.940079,84.3745966 665.940079,86.2641807 C665.940079,88.1076773 666.400474,89.8013644 667.321277,91.3452928 C668.242081,92.8892212 669.485147,94.1105194 671.050513,95.009224 C672.615879,95.9079286 674.31934,96.3572742 676.160947,96.3572742 Z" id="GDG-DevFest-Season-2" fill="#FFFFFF"></path>
        </g>
    </g>
</svg>