<?xml version="1.0" encoding="UTF-8"?>
<svg width="736px" height="122px" viewBox="0 0 736 122" version="1.1" xmlns="http://www.w3.org/2000/svg" xmlns:xlink="http://www.w3.org/1999/xlink">
    <!-- Generator: Sketch 52 (66869) - http://www.bohemiancoding.com/sketch -->
    <title>Group 2</title>
    <desc>Created with Sketch.</desc>
    <g id="Page-1" stroke="none" stroke-width="1" fill="none" fill-rule="evenodd">
        <g id="Group-2" fill="#3B4D69">
            <g id="Group">
                <path d="M146.07731,10.9792753 C149.838401,4.57323554 156.712118,1.0213719 163.780375,1.0213719 C167.217234,1.0213719 170.718939,1.90933781 173.961259,3.68526963 L245.616524,44.1511446 C255.40833,49.6692185 258.715496,61.8470367 253.073859,71.4243833 C249.312769,77.830423 242.439051,81.3822867 235.370794,81.3822867 C231.933935,81.3822867 228.43223,80.4943208 225.18991,78.7183889 L153.534645,38.2525139 C143.74284,32.7344401 140.435673,20.4931958 146.07731,10.9792753 Z" id="Path"></path>
                <path d="M110.152408,111.826832 C106.391317,118.232872 99.517599,121.784736 92.4493421,121.784736 C89.0124832,121.784736 85.5107779,120.89677 82.2684582,119.120838 L10.6131931,78.6549628 C0.821387655,73.1368889 -2.48577843,60.9590708 3.15585783,51.3817242 C6.91694867,44.9756844 13.7906664,41.4238208 20.8589233,41.4238208 C24.2957822,41.4238208 27.7974875,42.3117867 31.0398072,44.0877185 L102.695072,84.5535935 C112.422031,90.0716674 115.794044,102.312912 110.152408,111.826832 Z" id="Path"></path>
                <path d="M153.534645,84.5535935 L189.58924,64.1938037 L222.725747,82.9045139 C225.773528,84.6170196 229.080694,85.6952639 232.517553,86.0758208 L173.961259,119.120838 C170.718939,120.960196 167.217234,121.784736 163.780375,121.784736 C156.712118,121.784736 149.838401,118.232872 146.07731,111.826832 C140.435673,102.312912 143.74284,90.0716674 153.534645,84.5535935 Z" id="Path"></path>
                <path d="M102.695072,38.1890878 L66.6404773,58.5488776 L33.5039701,39.8381674 C30.4561896,38.1256617 27.1490235,37.0474174 23.7121647,36.6668605 L82.2684582,3.62184349 C85.5107779,1.78248554 89.0124832,0.957945764 92.4493421,0.957945764 C99.517599,0.957945764 106.391317,4.5098094 110.152408,10.9158492 C115.794044,20.4931958 112.422031,32.7344401 102.695072,38.1890878 Z" id="Path"></path>
            </g>
            <path d="M363.724107,54.7098214 C359.062366,54.7098214 354.769936,53.5806967 350.846688,51.3224133 C346.92344,49.06413 343.807966,45.9532761 341.500174,41.9897584 C339.192381,38.0262407 338.038502,33.6480019 338.038502,28.8549107 C338.038502,24.0618195 339.192381,19.6835807 341.500174,15.720063 C343.807966,11.7565453 346.92344,8.64569144 350.846688,6.38740809 C354.769936,4.12912474 359.062366,3 363.724107,3 C367.37042,3 370.797441,3.64521414 374.005273,4.93566176 C377.213105,6.22610939 379.855488,8.04653499 381.932502,10.3969932 L377.709262,14.6139706 C376.139963,12.6782991 374.132213,11.1920023 371.685953,10.1550355 C369.239692,9.11806861 366.608848,8.59959296 363.793341,8.59959296 C360.285496,8.59959296 357.020018,9.44067568 353.996809,11.1228663 C350.973601,12.805057 348.550454,15.1785233 346.727298,18.2433364 C344.904142,21.3081495 343.992577,24.8453056 343.992577,28.8549107 C343.992577,32.8645158 344.904142,36.4016719 346.727298,39.466485 C348.550454,42.5312981 350.985139,44.9047644 354.031426,46.5869551 C357.077712,48.2691458 360.331652,49.1102285 363.793341,49.1102285 C367.116562,49.1102285 369.897411,48.5917528 372.13597,47.554786 C374.374529,46.5178191 376.301507,45.1467391 377.916962,43.4415047 C379.117015,42.1510571 380.086273,40.5956302 380.824767,38.7751773 C381.56326,36.9547244 382.024812,34.9384302 382.209435,32.7262342 L363.862574,32.7262342 L363.862574,27.2649028 L387.678877,27.2649028 C387.909656,28.5553505 388.025044,29.7536053 388.025044,30.8597033 C388.025044,33.9014727 387.540415,36.8625447 386.571142,39.7430081 C385.601869,42.6234716 384.055671,45.1467197 381.932502,47.3128283 C377.363072,52.2441817 371.293668,54.7098214 363.724107,54.7098214 Z M394.056046,4.10609244 L409.010469,4.10609244 C414.087613,4.10609244 418.518509,5.15456541 422.303289,7.2515428 C426.088069,9.3485202 428.995845,12.2635055 431.026702,15.9965861 C433.05756,19.7296668 434.072974,24.0157321 434.072974,28.8549107 C434.072974,33.6940893 433.05756,37.9801547 431.026702,41.7132353 C428.995845,45.4463159 426.088069,48.3613012 422.303289,50.4582786 C418.518509,52.555256 414.087613,53.603729 409.010469,53.603729 L394.056046,53.603729 L394.056046,4.10609244 Z M409.010469,48.004136 C414.872263,48.004136 419.522395,46.3219706 422.961007,42.9575893 C426.399618,39.593208 428.118898,34.8923621 428.118898,28.8549107 C428.118898,22.8174593 426.399618,18.1166135 422.961007,14.7522321 C419.522395,11.3878508 414.872263,9.7056854 409.010469,9.7056854 L399.871655,9.7056854 L399.871655,48.004136 L409.010469,48.004136 Z M463.297177,54.7098214 C458.635436,54.7098214 454.343006,53.5806967 450.419758,51.3224133 C446.49651,49.06413 443.381036,45.9532761 441.073244,41.9897584 C438.765451,38.0262407 437.611572,33.6480019 437.611572,28.8549107 C437.611572,24.0618195 438.765451,19.6835807 441.073244,15.720063 C443.381036,11.7565453 446.49651,8.64569144 450.419758,6.38740809 C454.343006,4.12912474 458.635436,3 463.297177,3 C466.94349,3 470.370511,3.64521414 473.578343,4.93566176 C476.786175,6.22610939 479.428558,8.04653499 481.505572,10.3969932 L477.282332,14.6139706 C475.713033,12.6782991 473.705283,11.1920023 471.259023,10.1550355 C468.812762,9.11806861 466.181918,8.59959296 463.366411,8.59959296 C459.858566,8.59959296 456.593088,9.44067568 453.569879,11.1228663 C450.546671,12.805057 448.123525,15.1785233 446.300368,18.2433364 C444.477212,21.3081495 443.565647,24.8453056 443.565647,28.8549107 C443.565647,32.8645158 444.477212,36.4016719 446.300368,39.466485 C448.123525,42.5312981 450.558209,44.9047644 453.604496,46.5869551 C456.650783,48.2691458 459.904722,49.1102285 463.366411,49.1102285 C466.689633,49.1102285 469.470481,48.5917528 471.70904,47.554786 C473.947599,46.5178191 475.874577,45.1467391 477.490032,43.4415047 C478.690085,42.1510571 479.659343,40.5956302 480.397837,38.7751773 C481.13633,36.9547244 481.597882,34.9384302 481.782506,32.7262342 L463.435644,32.7262342 L463.435644,27.2649028 L487.251947,27.2649028 C487.482726,28.5553505 487.598114,29.7536053 487.598114,30.8597033 C487.598114,33.9014727 487.113485,36.8625447 486.144212,39.7430081 C485.174939,42.6234716 483.628741,45.1467197 481.505572,47.3128283 C476.936142,52.2441817 470.866738,54.7098214 463.297177,54.7098214 Z M506.998862,4.10609244 L521.953285,4.10609244 C527.030429,4.10609244 531.461325,5.15456541 535.246105,7.2515428 C539.030886,9.3485202 541.938661,12.2635055 543.969519,15.9965861 C546.000376,19.7296668 547.01579,24.0157321 547.01579,28.8549107 C547.01579,33.6940893 546.000376,37.9801547 543.969519,41.7132353 C541.938661,45.4463159 539.030886,48.3613012 535.246105,50.4582786 C531.461325,52.555256 527.030429,53.603729 521.953285,53.603729 L506.998862,53.603729 L506.998862,4.10609244 Z M521.953285,48.004136 C527.815079,48.004136 532.465212,46.3219706 535.903823,42.9575893 C539.342434,39.593208 541.061714,34.8923621 541.061714,28.8549107 C541.061714,22.8174593 539.342434,18.1166135 535.903823,14.7522321 C532.465212,11.3878508 527.815079,9.7056854 521.953285,9.7056854 L512.814471,9.7056854 L512.814471,48.004136 L521.953285,48.004136 Z M566.478079,54.7098214 C563.108701,54.7098214 560.085538,53.9033038 557.408498,52.2902442 C554.731459,50.6771847 552.642938,48.4535003 551.142872,45.6191242 C549.642807,42.7847482 548.892786,39.5932425 548.892786,36.0445116 C548.892786,32.6340428 549.596652,29.5001456 551.004405,26.6427258 C552.412159,23.7853061 554.40837,21.5040133 556.993098,19.7987789 C559.577826,18.0935445 562.577911,17.2409401 565.993445,17.2409401 C569.455134,17.2409401 572.45522,18.0128928 574.993792,19.5568212 C577.532364,21.1007496 579.48242,23.2322606 580.844017,25.9514181 C582.205615,28.6705756 582.886404,31.7814294 582.886404,35.284073 C582.886404,35.9753842 582.817171,36.5745116 582.678704,37.0814732 L554.777628,37.0814732 C554.916095,39.7545433 555.562268,42.0127928 556.716164,43.8562894 C557.87006,45.699786 559.335487,47.0823877 561.112487,48.004136 C562.889488,48.9258843 564.747233,49.3867516 566.685779,49.3867516 C571.209053,49.3867516 574.693768,47.2667623 577.140028,43.0267201 L582.124836,45.4462973 C580.601693,48.303717 578.536249,50.5619665 575.928443,52.2211134 C573.320637,53.8802604 570.170547,54.7098214 566.478079,54.7098214 Z M576.655394,32.2423188 C576.563083,30.7675215 576.147686,29.2927463 575.409193,27.8179491 C574.670699,26.3431518 573.505281,25.0988102 571.912904,24.0848871 C570.320527,23.0709639 568.324316,22.56401 565.924211,22.56401 C563.15486,22.56401 560.812485,23.4511794 558.897017,25.2255449 C556.981549,26.9999104 555.723821,29.3388116 555.123795,32.2423188 L576.655394,32.2423188 Z M582.478696,18.3470326 L588.778939,18.3470326 L599.717822,46.6906513 L599.856289,46.6906513 L610.933639,18.3470326 L617.095415,18.3470326 L602.69486,53.603729 L596.740784,53.603729 L582.478696,18.3470326 Z M620.426313,4.10609244 L649.088957,4.10609244 L649.088957,9.7056854 L626.241922,9.7056854 L626.241922,26.6427258 L646.873487,26.6427258 L646.873487,32.173188 L626.241922,32.173188 L626.241922,53.603729 L620.426313,53.603729 L620.426313,4.10609244 Z M666.958876,54.7098214 C663.589499,54.7098214 660.566336,53.9033038 657.889296,52.2902442 C655.212256,50.6771847 653.123735,48.4535003 651.62367,45.6191242 C650.123604,42.7847482 649.373583,39.5932425 649.373583,36.0445116 C649.373583,32.6340428 650.077449,29.5001456 651.485203,26.6427258 C652.892956,23.7853061 654.889167,21.5040133 657.473895,19.7987789 C660.058623,18.0935445 663.058709,17.2409401 666.474242,17.2409401 C669.935932,17.2409401 672.936017,18.0128928 675.474589,19.5568212 C678.013161,21.1007496 679.963217,23.2322606 681.324815,25.9514181 C682.686413,28.6705756 683.367201,31.7814294 683.367201,35.284073 C683.367201,35.9753842 683.297969,36.5745116 683.159501,37.0814732 L655.258425,37.0814732 C655.396893,39.7545433 656.043065,42.0127928 657.196962,43.8562894 C658.350858,45.699786 659.816284,47.0823877 661.593285,48.004136 C663.370285,48.9258843 665.228031,49.3867516 667.166577,49.3867516 C671.689851,49.3867516 675.174566,47.2667623 677.620826,43.0267201 L682.605634,45.4462973 C681.08249,48.303717 679.017047,50.5619665 676.409241,52.2211134 C673.801435,53.8802604 670.651345,54.7098214 666.958876,54.7098214 Z M677.136192,32.2423188 C677.04388,30.7675215 676.628484,29.2927463 675.88999,27.8179491 C675.151496,26.3431518 673.986078,25.0988102 672.393701,24.0848871 C670.801324,23.0709639 668.805113,22.56401 666.405009,22.56401 C663.635657,22.56401 661.293283,23.4511794 659.377815,25.2255449 C657.462347,26.9999104 656.204619,29.3388116 655.604592,32.2423188 L677.136192,32.2423188 Z M700.19862,54.7098214 C696.413839,54.7098214 693.252211,53.822652 690.713638,52.0482865 C688.175066,50.273921 686.375015,48.0041499 685.31343,45.2389049 L690.575172,42.8884585 C691.452133,45.0084796 692.756016,46.6445583 694.486861,47.7967437 C696.217705,48.9489291 698.121606,49.5250131 700.19862,49.5250131 C702.414101,49.5250131 704.306462,49.0756676 705.875762,48.176963 C707.445061,47.2782584 708.229698,45.9993518 708.229698,44.3402048 C708.229698,42.8654075 707.606604,41.6786744 706.360396,40.7799698 C705.114187,39.8812652 703.152593,39.1093126 700.475553,38.4640888 L696.18308,37.3579963 C693.367573,36.6666851 691.059815,35.4914736 689.259736,33.8323267 C687.459658,32.1731797 686.559632,30.0301471 686.559632,27.4031644 C686.559632,25.3753181 687.171188,23.5894576 688.394318,22.0455291 C689.617448,20.5016007 691.244418,19.3148676 693.275276,18.4852941 C695.306133,17.6557206 697.498504,17.2409401 699.852452,17.2409401 C702.944895,17.2409401 705.702666,17.9091976 708.125848,19.2457327 C710.549031,20.5822677 712.268311,22.44878 713.283739,24.8453256 L708.160465,27.1957721 C706.591166,24.0618278 703.798778,22.4948792 699.783219,22.4948792 C697.844673,22.4948792 696.148471,22.9442248 694.694561,23.8429294 C693.240652,24.741634 692.513708,25.8822804 692.513708,27.2649028 C692.513708,28.5553505 693.021415,29.6038234 694.036844,30.4103532 C695.052272,31.216883 696.575393,31.8736188 698.60625,32.3805804 L703.729525,33.6940651 C707.191214,34.569726 709.798981,35.871676 711.552904,37.599954 C713.306826,39.3282321 714.183774,41.4366997 714.183774,43.9254202 C714.183774,46.0915287 713.560679,47.9926061 712.314471,49.6287093 C711.068263,51.2648125 709.3836,52.5206758 707.26043,53.3963367 C705.137261,54.2719976 702.783348,54.7098214 700.19862,54.7098214 Z M731.153659,54.1567752 C729.722828,54.1567752 728.395867,53.9263416 727.172737,53.4654674 C725.949606,53.0045933 724.922654,52.3824225 724.091849,51.5989364 C723.168731,50.7232756 722.476404,49.7093676 722.014845,48.5571822 C721.553287,47.4049969 721.322511,45.9993518 721.322511,44.3402048 L721.322511,23.6701024 L715.160735,23.6701024 L715.160735,18.3470326 L721.322511,18.3470326 L721.322511,8.39220063 L727.207353,8.39220063 L727.207353,18.3470326 L735.7923,18.3470326 L735.7923,23.6701024 L727.207353,23.6701024 L727.207353,42.8884585 C727.207353,44.82413 727.576595,46.2528184 728.315088,47.1745667 C729.19205,48.1884898 730.461317,48.6954438 732.122927,48.6954438 C733.461447,48.6954438 734.753792,48.3037066 736,47.5202206 L736,53.2580751 C735.307662,53.580687 734.603796,53.8111206 733.88838,53.9493829 C733.172964,54.0876451 732.2614,54.1567752 731.153659,54.1567752 Z M354.30836,120 C350.431268,120 346.87732,118.824789 343.64641,116.47433 C340.4155,114.123872 338.200052,110.828671 337,106.588629 L342.607909,104.307314 C343.392558,107.256908 344.846446,109.676461 346.969615,111.566045 C349.092785,113.455629 351.585163,114.400407 354.446827,114.400407 C357.30849,114.400407 359.731636,113.628454 361.716338,112.084526 C363.701039,110.540598 364.693375,108.43213 364.693375,105.75906 C364.693375,103.454689 363.851044,101.553612 362.166355,100.055771 C360.481666,98.5579297 357.723895,97.1638063 353.892959,95.8733587 L350.777454,94.7672663 C347.269609,93.5229061 344.407989,91.8868274 342.192508,89.8589811 C339.977027,87.8311348 338.869303,85.0198447 338.869303,81.4250263 C338.869303,79.0745681 339.515475,76.8969704 340.807839,74.8921678 C342.100203,72.8873652 343.900255,71.2858516 346.208047,70.0875788 C348.51584,68.889306 351.100529,68.2901786 353.962192,68.2901786 C356.823856,68.2901786 359.316234,68.8201759 361.439404,69.8801864 C363.562573,70.940197 365.258776,72.2306253 366.528062,73.75151 C367.797348,75.2723947 368.685835,76.7702132 369.193549,78.2450105 L363.654874,80.5954569 C363.193315,78.8902226 362.143285,77.3463173 360.504752,75.9636949 C358.86622,74.5810724 356.708466,73.8897715 354.031426,73.8897715 C351.492854,73.8897715 349.323561,74.6041158 347.523483,76.0328256 C345.723404,77.4615355 344.823379,79.2589177 344.823379,81.4250263 C344.823379,83.3606977 345.584939,84.939168 347.108082,86.1604845 C348.631225,87.381801 350.938984,88.5224474 354.031426,89.582458 L357.285398,90.6885504 C361.48558,92.2094351 364.762597,94.1105125 367.116546,96.3918395 C369.470494,98.6731666 370.647451,101.772499 370.647451,105.689929 C370.647451,108.869961 369.828197,111.542991 368.189664,113.709099 C366.551131,115.875208 364.485688,117.4652 361.993271,118.479123 C359.500855,119.493046 356.939243,120 354.30836,120 Z M391.148242,120 C387.778864,120 384.755701,119.193482 382.078661,117.580423 C379.401622,115.967363 377.3131,113.743679 375.813035,110.909303 C374.31297,108.074927 373.562948,104.883421 373.562948,101.33469 C373.562948,97.9242214 374.266815,94.7903242 375.674568,91.9329044 C377.082322,89.0754847 379.078533,86.7941918 381.663261,85.0889575 C384.247989,83.3837231 387.248074,82.5311187 390.663608,82.5311187 C394.125297,82.5311187 397.125383,83.3030713 399.663955,84.8469997 C402.202527,86.3909282 404.152582,88.5224391 405.51418,91.2415966 C406.875778,93.9607541 407.556567,97.071608 407.556567,100.574252 C407.556567,101.265563 407.487334,101.86469 407.348866,102.371652 L379.447791,102.371652 C379.586258,105.044722 380.23243,107.302971 381.386327,109.146468 C382.540223,110.989965 384.00565,112.372566 385.78265,113.294315 C387.559651,114.216063 389.417396,114.67693 391.355942,114.67693 C395.879216,114.67693 399.363931,112.556941 401.810191,108.316899 L406.794999,110.736476 C405.271856,113.593896 403.206412,115.852145 400.598606,117.511292 C397.9908,119.170439 394.84071,120 391.148242,120 Z M401.325557,97.5324974 C401.233245,96.0577001 400.817849,94.5829249 400.079355,93.1081276 C399.340862,91.6333303 398.175444,90.3889888 396.583067,89.3750657 C394.99069,88.3611425 392.994479,87.8541886 390.594374,87.8541886 C387.825023,87.8541886 385.482648,88.741358 383.56718,90.5157235 C381.651712,92.290089 380.393984,94.6289902 379.793958,97.5324974 L401.325557,97.5324974 Z M423.349483,120 C420.764755,120 418.456997,119.493046 416.426139,118.479123 C414.395282,117.4652 412.826006,116.071076 411.718266,114.296711 C410.610525,112.522345 410.056663,110.506051 410.056663,108.247768 C410.056663,104.514687 411.464396,101.599702 414.279903,99.5027245 C417.09541,97.4057471 420.649358,96.3572742 424.941852,96.3572742 C427.065022,96.3572742 429.038155,96.5877078 430.861311,97.0485819 C432.684468,97.5094561 434.080661,98.0394534 435.049934,98.6385898 L435.049934,96.4955357 C435.049934,93.868553 434.126831,91.7600854 432.280597,90.1700696 C430.434363,88.5800538 428.103527,87.7850578 425.28802,87.7850578 C423.303318,87.7850578 421.480189,88.21136 419.818578,89.0639772 C418.156967,89.9165943 416.841545,91.1033275 415.872272,92.6242122 L411.441332,89.3059349 C412.826008,87.1859138 414.729908,85.5267917 417.153091,84.3285189 C419.576273,83.1302461 422.264811,82.5311187 425.218786,82.5311187 C430.018995,82.5311187 433.79218,83.7869819 436.538453,86.2987461 C439.284727,88.8105102 440.657843,92.2324495 440.657843,96.5646665 L440.657843,118.893908 L435.049934,118.893908 L435.049934,113.847361 L434.773001,113.847361 C433.757572,115.552595 432.234451,117.004327 430.203594,118.2026 C428.172736,119.400873 425.888055,120 423.349483,120 Z M423.903351,114.815192 C425.888053,114.815192 427.734259,114.308238 429.442026,113.294315 C431.149793,112.280391 432.51137,110.920833 433.526799,109.215599 C434.542228,107.510364 435.049934,105.643852 435.049934,103.616006 C433.942194,102.878607 432.580617,102.27948 430.965162,101.818606 C429.349707,101.357731 427.641965,101.127298 425.841887,101.127298 C422.610977,101.127298 420.176292,101.795555 418.537759,103.13209 C416.899226,104.468625 416.079972,106.196878 416.079972,108.316899 C416.079972,110.25257 416.818455,111.819519 418.295442,113.017791 C419.77243,114.216064 421.641714,114.815192 423.903351,114.815192 Z M458.112362,120 C454.327582,120 451.165953,119.112831 448.627381,117.338465 C446.088809,115.5641 444.288758,113.294328 443.227173,110.529084 L448.488914,108.178637 C449.365875,110.298658 450.669759,111.934737 452.400603,113.086922 C454.131448,114.239108 456.035349,114.815192 458.112362,114.815192 C460.327843,114.815192 462.220205,114.365846 463.789504,113.467142 C465.358803,112.568437 466.143441,111.28953 466.143441,109.630383 C466.143441,108.155586 465.520346,106.968853 464.274138,106.070148 C463.02793,105.171444 461.066336,104.399491 458.389296,103.754267 L454.096823,102.648175 C451.281315,101.956864 448.973557,100.781652 447.173479,99.1225053 C445.3734,97.4633583 444.473375,95.3203256 444.473375,92.693343 C444.473375,90.6654967 445.084931,88.8796361 446.308061,87.3357077 C447.531191,85.7917793 449.158161,84.6050462 451.189018,83.7754727 C453.219876,82.9458992 455.412246,82.5311187 457.766195,82.5311187 C460.858637,82.5311187 463.616408,83.1993762 466.039591,84.5359112 C468.462773,85.8724463 470.182053,87.7389586 471.197482,90.1355042 L466.074208,92.4859506 C464.504908,89.3520064 461.712521,87.7850578 457.696962,87.7850578 C455.758416,87.7850578 454.062213,88.2344033 452.608304,89.1331079 C451.154394,90.0318125 450.42745,91.1724589 450.42745,92.5550814 C450.42745,93.845529 450.935157,94.894002 451.950586,95.7005318 C452.966015,96.5070615 454.489135,97.1637974 456.519993,97.6707589 L461.643268,98.9842437 C465.104957,99.8599046 467.712724,101.161855 469.466646,102.890133 C471.220569,104.618411 472.097517,106.726878 472.097517,109.215599 C472.097517,111.381707 471.474422,113.282785 470.228214,114.918888 C468.982006,116.554991 467.297342,117.810854 465.174173,118.686515 C463.051003,119.562176 460.69709,120 458.112362,120 Z M492.45984,120 C488.998151,120 485.882678,119.170439 483.113326,117.511292 C480.343975,115.852145 478.186221,113.593896 476.64,110.736476 C475.093778,107.879056 474.320679,104.722115 474.320679,101.265559 C474.320679,97.8090032 475.093778,94.6520626 476.64,91.7946429 C478.186221,88.9372231 480.343975,86.6789736 483.113326,85.0198267 C485.882678,83.3606797 488.998151,82.5311187 492.45984,82.5311187 C495.92153,82.5311187 499.037003,83.3606797 501.806355,85.0198267 C504.575706,86.6789736 506.73346,88.9372231 508.279681,91.7946429 C509.825902,94.6520626 510.599001,97.8090032 510.599001,101.265559 C510.599001,104.722115 509.825902,107.879056 508.279681,110.736476 C506.73346,113.593896 504.575706,115.852145 501.806355,117.511292 C499.037003,119.170439 495.92153,120 492.45984,120 Z M492.45984,114.67693 C494.629166,114.67693 496.648454,114.135411 498.517766,113.052357 C500.387078,111.969303 501.887121,110.413876 503.01794,108.386029 C504.148758,106.358183 504.714159,103.984717 504.714159,101.265559 C504.714159,98.5464018 504.148758,96.1729356 503.01794,94.1450893 C501.887121,92.117243 500.387078,90.5618161 498.517766,89.4787618 C496.648454,88.3957076 494.629166,87.8541886 492.45984,87.8541886 C490.290515,87.8541886 488.259688,88.3957076 486.367298,89.4787618 C484.474908,90.5618161 482.963326,92.117243 481.832508,94.1450893 C480.701689,96.1729356 480.136288,98.5464018 480.136288,101.265559 C480.136288,103.984717 480.701689,106.358183 481.832508,108.386029 C482.963326,110.413876 484.474908,111.969303 486.367298,113.052357 C488.259688,114.135411 490.290515,114.67693 492.45984,114.67693 Z M514.068366,83.6372111 L519.676274,83.6372111 L519.676274,88.8220194 L519.953208,88.8220194 C520.922481,87.0706977 522.468679,85.5844008 524.591849,84.3630843 C526.715018,83.1417678 528.976621,82.5311187 531.376726,82.5311187 C535.623064,82.5311187 538.865465,83.7639386 541.104024,86.2296153 C543.342583,88.695292 544.461845,92.0481012 544.461845,96.2881434 L544.461845,118.893908 L538.577003,118.893908 L538.577003,97.1868435 C538.577003,93.914637 537.792365,91.5411707 536.223066,90.0663734 C534.653767,88.5915761 532.507552,87.8541886 529.784356,87.8541886 C527.891966,87.8541886 526.195764,88.3841859 524.695699,89.4441964 C523.195633,90.504207 522.030215,91.8983304 521.19941,93.6266085 C520.368605,95.3548865 519.953208,97.1637904 519.953208,99.0533745 L519.953208,118.893908 L514.068366,118.893908 L514.068366,83.6372111 Z M562.339458,113.017791 C563.770289,111.589082 566.608832,108.720183 570.855171,104.41101 C575.10151,100.101836 578.05544,97.0485909 579.717051,95.2511817 C582.071,92.7163739 583.663353,90.7346447 584.494158,89.3059349 C585.324964,87.877225 585.74036,86.1489728 585.74036,84.1211266 C585.74036,82.7385041 585.382658,81.4365542 584.667242,80.2152377 C583.951826,78.9939212 582.913335,78.0030566 581.551737,77.2426142 C580.190139,76.4821719 578.56317,76.1019564 576.67078,76.1019564 C574.178363,76.1019564 572.182153,76.8278223 570.682087,78.2795759 C569.182022,79.7313295 568.201225,81.3097998 567.739666,83.0150341 L562.339458,80.87198 C562.801016,79.3971828 563.631809,77.8647992 564.831862,76.2747834 C566.031914,74.6847675 567.647345,73.3252092 569.678202,72.1960675 C571.70906,71.0669258 574.109129,70.5023634 576.87848,70.5023634 C579.786299,70.5023634 582.359449,71.1245342 584.598008,72.3688944 C586.836567,73.6132546 588.578925,75.2723767 589.825133,77.3463104 C591.071341,79.4202441 591.694436,81.6554502 591.694436,84.0519958 C591.694436,88.8911744 589.155902,93.891584 584.078758,99.0533745 L569.885903,113.294315 L592.248303,113.294315 L592.248303,118.893908 L562.339458,118.893908 L562.339458,113.017791 Z M615.172264,120 C611.43364,120 608.122007,118.90544 605.237266,116.716288 C602.352525,114.527136 600.137077,111.554542 598.590856,107.798418 C597.044635,104.042293 596.271536,99.8599233 596.271536,95.2511817 C596.271536,90.6424402 597.044635,86.46007 598.590856,82.7039456 C600.137077,78.9478213 602.340986,75.9752276 605.202649,73.7860754 C608.064312,71.5969231 611.387484,70.5023634 615.172264,70.5023634 C618.957044,70.5023634 622.280216,71.5969231 625.141879,73.7860754 C628.003543,75.9752276 630.207452,78.9478213 631.753673,82.7039456 C633.299894,86.46007 634.072993,90.6424402 634.072993,95.2511817 C634.072993,99.8599233 633.299894,104.042293 631.753673,107.798418 C630.207452,111.554542 627.992004,114.527136 625.107263,116.716288 C622.222522,118.90544 618.910889,120 615.172264,120 Z M615.172264,114.400407 C617.803148,114.400407 620.087829,113.559324 622.026375,111.877134 C623.964921,110.194943 625.464963,107.902128 626.526548,104.998621 C627.588133,102.095114 628.118917,98.8460001 628.118917,95.2511817 C628.118917,91.6563633 627.588133,88.4072493 626.526548,85.5037421 C625.464963,82.600235 623.964921,80.3074204 622.026375,78.6252298 C620.087829,76.9430391 617.803148,76.1019564 615.172264,76.1019564 C612.54138,76.1019564 610.2567,76.9430391 608.318154,78.6252298 C606.379608,80.3074204 604.879565,82.600235 603.81798,85.5037421 C602.756396,88.4072493 602.225611,91.6563633 602.225611,95.2511817 C602.225611,98.8460001 602.756396,102.095114 603.81798,104.998621 C604.879565,107.902128 606.379608,110.194943 608.318154,111.877134 C610.2567,113.559324 612.54138,114.400407 615.172264,114.400407 Z M648.619708,79.8350184 L640.311695,85.7802652 L637.265424,81.2867647 L650.765944,71.6084559 L654.50455,71.6084559 L654.50455,118.893908 L648.619708,118.893908 L648.619708,79.8350184 Z M670.089766,116.750853 L681.997918,100.090336 L681.859451,99.9520746 C680.243996,101.058173 678.190091,101.611213 675.697675,101.611213 C673.29757,101.611213 670.943657,100.942956 668.635864,99.6064207 C666.328071,98.2698856 664.458787,96.4379384 663.027956,94.1105239 C661.597124,91.7831094 660.881719,89.1907312 660.881719,86.3333114 C660.881719,83.5680665 661.608663,80.9756883 663.062572,78.556099 C664.516482,76.1365097 666.478076,74.1893456 668.947415,72.7145483 C671.416753,71.239751 674.105291,70.5023634 677.01311,70.5023634 C680.151709,70.5023634 682.955635,71.2627944 685.424973,72.7836791 C687.894311,74.3045638 689.809751,76.2747713 691.171348,78.6943606 C692.532946,81.1139499 693.213735,83.6602414 693.213735,86.3333114 C693.213735,88.8681193 692.694489,91.299194 691.655983,93.6266085 C690.617476,95.9540229 689.128972,98.5464012 687.190426,101.403821 L674.79764,120 L670.089766,116.750853 Z M677.01311,96.3572742 C678.859345,96.3572742 680.578624,95.9079286 682.171001,95.009224 C683.763379,94.1105194 685.021107,92.8892212 685.944224,91.3452928 C686.867341,89.8013644 687.328893,88.1076773 687.328893,86.2641807 C687.328893,84.3745966 686.867341,82.6578662 685.944224,81.1139378 C685.021107,79.5700093 683.763379,78.3487112 682.171001,77.4500066 C680.578624,76.551302 678.859345,76.1019564 677.01311,76.1019564 C675.166876,76.1019564 673.459135,76.551302 671.889836,77.4500066 C670.320537,78.3487112 669.074347,79.5700093 668.15123,81.1139378 C667.228113,82.6578662 666.766561,84.3745966 666.766561,86.2641807 C666.766561,88.1076773 667.228113,89.8013644 668.15123,91.3452928 C669.074347,92.8892212 670.320537,94.1105194 671.889836,95.009224 C673.459135,95.9079286 675.166876,96.3572742 677.01311,96.3572742 Z" id="GDG-DevFest-Season-2"></path>
        </g>
    </g>
</svg>