<?xml version="1.0" encoding="UTF-8"?>
<svg width="1165px" height="126px" viewBox="0 0 1165 126" version="1.1" xmlns="http://www.w3.org/2000/svg" xmlns:xlink="http://www.w3.org/1999/xlink">
    <!-- Generator: Sketch 52 (66869) - http://www.bohemiancoding.com/sketch -->
    <title>Group 3</title>
    <desc>Created with Sketch.</desc>
    <g id="Page-1" stroke="none" stroke-width="1" fill="none" fill-rule="evenodd">
        <g id="Group-3" fill="#757575">
            <g id="Group">
                <path d="M146.786947,10.0370955 C150.598289,3.5801105 157.563845,0 164.726539,0 C168.209317,0 171.757808,0.895027624 175.043447,2.68508287 L247.656082,43.4727703 C257.578714,49.0347277 260.930066,61.3093923 255.213053,70.9629045 C251.401711,77.4198895 244.436155,81 237.273461,81 C233.790683,81 230.242192,80.1049724 226.956553,78.3149171 L154.343918,37.5272297 C144.421286,31.9652723 141.069934,19.6266772 146.786947,10.0370955 Z" id="Path"></path>
                <path d="M111.227059,110.962904 C107.415237,117.41989 100.448804,121 93.2852079,121 C89.8019913,121 86.2530537,120.104972 82.9670003,118.314917 L10.3452207,77.5272297 C0.421339489,71.9652723 -2.93043495,59.6906077 2.78729792,50.0370955 C6.59911983,43.5801105 13.565553,40 20.7291493,40 C24.2123659,40 27.7613036,40.8950276 31.0473569,42.6850829 L103.669137,83.4727703 C113.527297,89.0347277 116.944792,101.373323 111.227059,110.962904 Z" id="Path"></path>
                <path d="M155.300188,84.5044053 L191.68204,64 L225.119317,82.8436123 C228.194762,84.5682819 231.531946,85.654185 235,86.0374449 L175.912208,119.317181 C172.640459,121.169604 169.10697,122 165.638916,122 C158.506502,122 151.570394,118.422907 147.775165,111.971366 C142.082321,102.389868 145.419505,90.061674 155.300188,84.5044053 Z" id="Path"></path>
                <path d="M103.712473,37.4955947 L67.3248414,58 L33.8822524,39.1563877 C30.8063195,37.4317181 27.4686051,36.345815 24,35.9625551 L83.097178,2.68281938 C86.369447,0.830396476 89.9034975,0 93.3721026,0 C100.505649,0 107.442859,3.57709251 111.238691,10.0286344 C116.932439,19.6740088 113.52928,32.0022026 103.712473,37.4955947 Z" id="Path"></path>
            </g>
            <path d="M397.781163,126 C386.749846,126 376.592448,123.336034 367.308666,118.008021 C358.024884,112.680009 350.65258,105.34051 345.191531,95.9893048 C339.730483,86.6380994 337,76.3084344 337,65 C337,53.6915656 339.730483,43.3619006 345.191531,34.0106952 C350.65258,24.6594898 358.024884,17.319991 367.308666,11.9919786 C376.592448,6.66396623 386.749846,4 397.781163,4 C406.40962,4 414.519155,5.52226642 422.110012,8.56684492 C429.700869,11.6114234 435.953675,15.9063894 440.868619,21.4518717 L430.874951,31.4010695 C427.161438,26.8342018 422.410397,23.3275523 416.621686,20.881016 C410.832975,18.4344797 404.607473,17.2112299 397.944994,17.2112299 C389.644201,17.2112299 381.916933,19.195613 374.76296,23.1644385 C367.608987,27.1332641 361.874972,32.7330298 357.560744,39.9639037 C353.246516,47.1947777 351.089434,55.5400597 351.089434,65 C351.089434,74.4599403 353.246516,82.8052223 357.560744,90.0360963 C361.874972,97.2669702 367.636292,102.866736 374.844875,106.835561 C382.053459,110.804387 389.753422,112.78877 397.944994,112.78877 C405.808904,112.78877 412.389368,111.56552 417.686585,109.118984 C422.983802,106.672448 427.543709,103.437632 431.366442,99.4144385 C434.206188,96.36986 436.499793,92.7001106 438.247329,88.4050802 C439.994864,84.1100498 441.087058,79.3529673 441.523941,74.1336898 L398.108825,74.1336898 L398.108825,61.2486631 L454.466561,61.2486631 C455.012666,64.2932416 455.285714,67.1203078 455.285714,69.7299465 C455.285714,76.906453 454.138911,83.8925685 451.845271,90.6885027 C449.551631,97.4844368 445.892783,103.437586 440.868619,108.548128 C430.055743,120.182768 415.693402,126 397.781163,126 Z M468.934066,6.27329193 L504.353664,6.27329193 C516.378896,6.27329193 526.873486,8.74517232 535.83775,13.6890073 C544.802014,18.6328422 551.68909,25.5052129 556.499182,34.3063257 C561.309275,43.1074384 563.714286,53.2122682 563.714286,64.621118 C563.714286,76.0299679 561.309275,86.1347976 556.499182,94.9359103 C551.68909,103.737023 544.802014,110.609394 535.83775,115.553229 C526.873486,120.497064 516.378896,122.968944 504.353664,122.968944 L468.934066,122.968944 L468.934066,6.27329193 Z M504.928248,110.086957 C518.774902,110.086957 529.759386,106.126289 537.88203,98.2048344 C546.004673,90.2833801 550.065934,79.2152126 550.065934,65 C550.065934,50.7847874 546.004673,39.7166199 537.88203,31.7951656 C529.759386,23.8737112 518.774902,19.9130435 504.928248,19.9130435 L483.340659,19.9130435 L483.340659,110.086957 L504.928248,110.086957 Z M632.836108,126 C621.804791,126 611.647394,123.336034 602.363611,118.008021 C593.079829,112.680009 585.707525,105.34051 580.246477,95.9893048 C574.785428,86.6380994 572.054945,76.3084344 572.054945,65 C572.054945,53.6915656 574.785428,43.3619006 580.246477,34.0106952 C585.707525,24.6594898 593.079829,17.319991 602.363611,11.9919786 C611.647394,6.66396623 621.804791,4 632.836108,4 C641.464565,4 649.5741,5.52226642 657.164957,8.56684492 C664.755814,11.6114234 671.008621,15.9063894 675.923564,21.4518717 L665.929896,31.4010695 C662.216383,26.8342018 657.465342,23.3275523 651.676631,20.881016 C645.88792,18.4344797 639.662418,17.2112299 632.999939,17.2112299 C624.699146,17.2112299 616.971878,19.195613 609.817905,23.1644385 C602.663932,27.1332641 596.929917,32.7330298 592.615689,39.9639037 C588.301461,47.1947777 586.144379,55.5400597 586.144379,65 C586.144379,74.4599403 588.301461,82.8052223 592.615689,90.0360963 C596.929917,97.2669702 602.691237,102.866736 609.89982,106.835561 C617.108404,110.804387 624.808367,112.78877 632.999939,112.78877 C640.863849,112.78877 647.444313,111.56552 652.74153,109.118984 C658.038747,106.672448 662.598654,103.437632 666.421387,99.4144385 C669.261133,96.36986 671.554738,92.7001106 673.302274,88.4050802 C675.049809,84.1100498 676.142003,79.3529673 676.578886,74.1336898 L633.16377,74.1336898 L633.16377,61.2486631 L689.521506,61.2486631 C690.067611,64.2932416 690.340659,67.1203078 690.340659,69.7299465 C690.340659,76.906453 689.193856,83.8925685 686.900216,90.6885027 C684.606576,97.4844368 680.947728,103.437586 675.923564,108.548128 C665.110688,120.182768 650.748347,126 632.836108,126 Z M735.835165,6.27329193 L749.597824,6.27329193 L749.597824,109.767341 L801.043956,109.767341 L801.043956,122.968944 L735.835165,122.968944 L735.835165,6.27329193 Z M818.483516,24.4596273 C815.790295,24.4596273 813.474158,23.4826852 811.535039,21.5287716 C809.595919,19.5748581 808.626374,17.2410518 808.626374,14.527283 C808.626374,11.8135141 809.595919,9.50684522 811.535039,7.60720702 C813.474158,5.70756883 815.790295,4.75776398 818.483516,4.75776398 C821.176738,4.75776398 823.492874,5.70756883 825.431994,7.60720702 C827.371114,9.50684522 828.340659,11.8135141 828.340659,14.527283 C828.340659,17.2410518 827.398046,19.5748581 825.51279,21.5287716 C823.627535,23.4826852 821.284467,24.4596273 818.483516,24.4596273 Z M811.659341,39.6149068 L825.307692,39.6149068 L825.307692,122.968944 L811.659341,122.968944 L811.659341,39.6149068 Z M869.591193,126 C860.644986,126 853.171743,123.900791 847.171239,119.70231 C841.170734,115.503829 836.915895,110.133126 834.406593,103.590039 L846.84394,98.0284431 C848.916842,103.04481 851.998873,106.916078 856.090126,109.642364 C860.181379,112.368651 864.681689,113.731773 869.591193,113.731773 C874.827997,113.731773 879.301033,112.668538 883.010436,110.542034 C886.719838,108.415531 888.574512,105.389399 888.574512,101.463547 C888.574512,97.9739002 887.101683,95.1658675 884.155981,93.0393642 C881.210279,90.9128609 876.573595,89.0862766 870.24579,87.5595563 L860.099534,84.9423346 C853.444429,83.3065628 847.989507,80.5257926 843.734604,76.5999404 C839.4797,72.6740882 837.352281,67.6032719 837.352281,61.3873393 C837.352281,56.5890755 838.797835,52.3633952 841.688987,48.7101717 C844.580139,45.0569481 848.425859,42.2489154 853.226263,40.2859893 C858.026666,38.3230632 863.208842,37.3416149 868.772946,37.3416149 C876.082652,37.3416149 882.601284,38.9228372 888.329038,42.0853292 C894.056792,45.2478213 898.120709,49.6643387 900.520911,55.3350141 L888.410863,60.8966102 C884.70146,53.4811116 878.101004,49.773418 868.609297,49.773418 C864.027094,49.773418 860.017726,50.8366537 856.581074,52.9631569 C853.144421,55.0896602 851.426121,57.7886431 851.426121,61.0601866 C851.426121,64.1136271 852.626204,66.5945104 855.026405,68.5029108 C857.426607,70.4113111 861.026856,71.965271 865.827259,73.1648369 L877.937307,76.2727877 C886.119813,78.3447652 892.283875,81.4254225 896.429678,85.5148518 C900.575481,89.6042812 902.648352,94.5933102 902.648352,100.482088 C902.648352,105.607507 901.175523,110.105811 898.229821,113.977138 C895.284118,117.848464 891.302025,120.820072 886.283422,122.892049 C881.264818,124.964027 875.700797,126 869.591193,126 Z M953.913333,126 C947.618237,126 941.947309,124.555225 936.900378,121.665631 C931.853447,118.776038 928.081873,115.25951 925.585542,111.115942 L924.934328,111.115942 L924.934328,123.383023 L911.747253,123.383023 L911.747253,6.27329193 L925.585542,6.27329193 L925.585542,40.7846791 L924.934328,52.3975155 L925.585542,52.3975155 C928.081873,48.1449063 931.853447,44.5738585 936.900378,41.684265 C941.947309,38.7946715 947.618237,37.3498965 953.913333,37.3498965 C961.293791,37.3498965 968.022931,39.25809 974.100955,43.0745342 C980.178979,46.8909784 984.954497,52.1794003 988.427654,58.9399586 C991.90081,65.7005169 993.637363,73.278771 993.637363,81.6749482 C993.637363,90.1801667 991.90081,97.7856808 988.427654,104.491718 C984.954497,111.197756 980.178979,116.458918 974.100955,120.275362 C968.022931,124.091807 961.293791,126 953.913333,126 Z M952.611309,113.118012 C957.363281,113.118012 961.845187,111.80561 966.057162,109.180765 C970.269138,106.55592 973.644067,102.810103 976.182052,97.9432029 C978.720037,93.0763027 979.989011,87.5259324 979.989011,81.2919255 C979.989011,75.0579185 978.720037,69.5075482 976.182052,64.640648 C973.644067,59.7737478 970.269138,56.0279314 966.057162,53.4030864 C961.845187,50.7782413 957.363281,49.4658385 952.611309,49.4658385 C947.859336,49.4658385 943.37743,50.7782413 939.165455,53.4030864 C934.953479,56.0279314 931.605549,59.7464061 929.121564,64.558622 C926.637578,69.3708379 925.395604,74.94855 925.395604,81.2919255 C925.395604,87.635301 926.637578,93.213013 929.121564,98.0252289 C931.605549,102.837445 934.953479,106.55592 939.165455,109.180765 C943.37743,111.80561 947.859336,113.118012 952.611309,113.118012 Z M1041.78571,126 C1033.60998,126 1026.25192,124.037103 1019.71133,120.111251 C1013.17074,116.185399 1008.0746,110.841958 1004.42277,104.080768 C1000.77094,97.3195784 998.945055,89.8496662 998.945055,81.6708075 C998.945055,73.4919487 1000.77094,66.0220365 1004.42277,59.2608466 C1008.0746,52.4996568 1013.17074,47.1562159 1019.71133,43.2303637 C1026.25192,39.3045116 1033.60998,37.3416149 1041.78571,37.3416149 C1049.96145,37.3416149 1057.31951,39.3045116 1063.8601,43.2303637 C1070.40069,47.1562159 1075.49683,52.4996568 1079.14866,59.2608466 C1082.80049,66.0220365 1084.62637,73.4919487 1084.62637,81.6708075 C1084.62637,89.8496662 1082.80049,97.3195784 1079.14866,104.080768 C1075.49683,110.841958 1070.40069,116.185399 1063.8601,120.111251 C1057.31951,124.037103 1049.96145,126 1041.78571,126 Z M1042.62619,113.118012 C1047.77941,113.118012 1052.57622,111.832951 1057.01676,109.262791 C1061.4573,106.69263 1065.02065,103.001497 1067.7069,98.1892809 C1070.39316,93.377065 1071.73626,87.7446695 1071.73626,81.2919255 C1071.73626,74.8391814 1070.39316,69.2067859 1067.7069,64.39457 C1065.02065,59.5823541 1061.4573,55.8912211 1057.01676,53.3210604 C1052.57622,50.7508996 1047.77941,49.4658385 1042.62619,49.4658385 C1037.47297,49.4658385 1032.64875,50.7508996 1028.15338,53.3210604 C1023.65802,55.8912211 1020.06726,59.5823541 1017.38101,64.39457 C1014.69476,69.2067859 1013.35165,74.8391814 1013.35165,81.2919255 C1013.35165,87.7446695 1014.69476,93.377065 1017.38101,98.1892809 C1020.06726,103.001497 1023.65802,106.69263 1028.15338,109.262791 C1032.64875,111.832951 1037.47297,113.118012 1042.62619,113.118012 Z M1093.72527,39.9462485 L1106.87619,39.9462485 L1106.87619,52.1554684 L1107.52562,52.1554684 C1109.79863,48.0314446 1113.42457,44.5315033 1118.40354,41.6555393 C1123.38251,38.7795753 1128.68612,37.3416149 1134.31453,37.3416149 C1144.27247,37.3416149 1151.87612,40.2446671 1157.12569,46.0508585 C1162.37525,51.8570499 1165,59.7522665 1165,69.7367452 L1165,122.968944 L1151.19965,122.968944 L1151.19965,71.8530099 C1151.19965,64.1475971 1149.35963,58.5585434 1145.67952,55.0856812 C1141.99941,51.6128191 1136.96639,49.876414 1130.58031,49.876414 C1126.14253,49.876414 1122.16483,51.1244552 1118.64708,53.6205748 C1115.12932,56.1166945 1112.39634,59.3995853 1110.44805,63.4693456 C1108.49975,67.5391059 1107.52562,71.7987245 1107.52562,76.2483291 L1107.52562,122.968944 L1093.72527,122.968944 L1093.72527,39.9462485 Z" id="GDG-Lisbon"></path>
        </g>
    </g>
</svg>